<svg width="124" height="36" viewBox="0 0 124 36" fill="none" xmlns="http://www.w3.org/2000/svg">
<path d="M47.1435 8.71118C49.8029 9.12625 52.2012 9.7585 52.2012 12.191C52.2012 14.6235 49.5418 15.5405 46.9549 15.5405C45.2481 15.5405 43.0867 14.942 42.2889 13.6486C42.2107 13.502 42.1717 13.3379 42.1757 13.1719C42.1797 13.0059 42.2264 12.8438 42.3115 12.7011C42.3966 12.5585 42.5171 12.4401 42.6613 12.3575C42.8056 12.2749 42.9688 12.2309 43.1351 12.2296H44.7452C44.7452 14.1167 45.983 14.7345 46.9743 14.7345C47.9655 14.7345 49.2807 14.1167 49.2807 12.2296C49.2807 11.4236 48.1734 11.1437 46.7857 10.9361C44.107 10.5259 41.9504 9.72472 41.9504 7.55767C41.9504 5.27479 44.8516 4.37708 46.8969 4.30469C48.4152 4.30469 50.8328 4.93694 51.5823 6.60205C51.631 6.74592 51.645 6.89924 51.6232 7.04954C51.6013 7.19984 51.5443 7.34288 51.4566 7.46704C51.369 7.59119 51.2533 7.69295 51.1188 7.76405C50.9844 7.83515 50.835 7.87357 50.6829 7.87621H48.9809C48.9809 5.74295 47.6657 5.10587 46.9356 5.10587C46.0942 5.10587 44.8564 5.74295 44.8564 7.51906C44.8564 8.30576 46.1136 8.58569 47.1242 8.73531L47.1435 8.71118Z" fill="white"/>
<path d="M61.5429 15.2606C62.0654 14.415 62.3136 13.429 62.2537 12.4372V9.77788C62.2537 6.99305 61.9539 5.10111 60.1552 5.10111C57.8682 5.10111 57.1574 6.99305 57.1574 9.77788V12.4372C57.1347 13.2374 57.2814 14.0334 57.5877 14.7732V14.8118C57.6746 14.9804 57.7748 15.1418 57.8875 15.2944L57.9262 15.3282H53.4246L53.5019 15.2365C54.0243 14.3908 54.2726 13.4048 54.2127 12.4131V3.40222C54.2127 1.36066 53.4246 0.506392 53.4246 0.506392H54.7591C55.0742 0.504475 55.3865 0.564927 55.678 0.68425C55.9695 0.803572 56.2345 0.9794 56.4575 1.20156C56.6805 1.42373 56.8572 1.68782 56.9773 1.97857C57.0975 2.26932 57.1587 2.58095 57.1574 2.89545V5.96503C57.8101 5.02871 58.5789 4.29993 60.1359 4.29993C63.9412 4.29993 65.1597 6.82413 65.1597 9.9275V12.4372C65.1371 13.2374 65.2837 14.0334 65.5901 14.7732V14.8118C65.6769 14.9804 65.7772 15.1418 65.8898 15.2944L65.9237 15.333H61.4269L61.5043 15.2365L61.5429 15.2606Z" fill="white"/>
<path d="M78.8823 12.6593C78.8507 13.5954 79.1275 14.516 79.6704 15.28H77.6638C76.8756 15.28 75.9763 14.6429 75.9763 13.8562C75.3042 14.7925 74.5257 15.5213 72.9784 15.5213C69.1779 15.5213 67.0601 12.9971 67.0601 9.88894C67.0601 6.78075 69.1779 4.26138 72.9784 4.26138C73.6224 4.25684 74.2627 4.35793 74.8738 4.56061C75.6408 4.88413 76.467 5.04437 77.2996 5.03107C78.1322 5.01777 78.9528 4.83124 79.7091 4.48339C79.1448 5.34055 78.8687 6.35487 78.9209 7.37922L78.8823 12.6593ZM72.9591 14.6622C75.2461 14.6622 75.9569 11.6699 75.9569 9.86964C75.9569 7.10412 75.2461 5.06738 72.9591 5.06738C71.1604 5.06738 69.9612 7.10412 69.9612 9.89377C69.9612 12.6834 71.1604 14.7202 72.9591 14.7202V14.6622Z" fill="white"/>
<path d="M92.8705 12.3795C92.8705 14.4162 93.6586 15.2753 93.6586 15.2753H92.59C92.0595 15.2788 91.5394 15.1283 91.093 14.8421C90.6466 14.5559 90.2932 14.1463 90.0757 13.6633C89.6247 14.2481 89.0422 14.7188 88.3753 15.0374C87.7083 15.356 86.9757 15.5135 86.2365 15.4973C82.9582 15.4973 81.0435 12.9731 81.0435 9.86491C81.0435 6.75672 82.731 4.24218 86.2559 4.24218C86.9594 4.22517 87.6579 4.36593 88.2997 4.65411C88.9416 4.94228 89.5105 5.37052 89.9645 5.90728V3.37825C89.9645 1.33669 89.1764 0.482422 89.1764 0.482422H90.2256C91.5408 0.482422 92.8705 1.54905 92.8705 2.857V12.3795ZM86.9473 14.6623C89.215 14.6623 89.9452 11.67 89.9452 9.86974C89.9452 7.10422 89.2344 5.06749 86.9473 5.06749C85.1486 5.06749 83.9688 7.10422 83.9688 9.89387C83.9688 12.6835 85.1486 14.7203 86.9473 14.7203V14.6623Z" fill="white"/>
<path d="M106.859 4.46924C105.903 5.42454 105.128 6.54461 104.572 7.77531L100.22 17.4667C100.018 18.0265 99.6499 18.5114 99.1642 18.8564C98.6786 19.2014 98.0989 19.3901 97.5029 19.3972C96.8117 19.3843 96.1446 19.1414 95.6074 18.7071C95.1797 18.2792 94.9323 17.7041 94.916 17.0999C94.9134 16.9385 94.9431 16.7783 95.0032 16.6285C95.0632 16.4787 95.1526 16.3424 95.266 16.2274C95.3794 16.1124 95.5146 16.0211 95.6637 15.9587C95.8128 15.8964 95.9728 15.8643 96.1345 15.8643H97.822C97.0338 16.6317 96.942 18.5575 97.6334 18.5575C98.7745 18.5575 99.524 16.8344 99.524 16.8344C99.9012 16.0139 99.6207 14.7977 99.2436 13.9724L96.5552 7.96354C95.9692 6.67564 95.1717 5.49459 94.1956 4.46924H98.9728C98.9341 4.69077 98.9147 4.91523 98.9148 5.14011C98.9108 5.80618 99.0527 6.46507 99.3306 7.07066L101.632 12.2349L104.05 6.82934C104.385 6.09734 104.484 5.27891 104.33 4.48854L106.859 4.46924Z" fill="white"/>
<path d="M48.6038 20.4204C51.3212 20.4204 51.9208 21.8249 51.9208 23.7313C51.922 23.8872 51.8925 24.0419 51.8339 24.1864C51.7753 24.3309 51.6888 24.4625 51.5792 24.5737C51.4697 24.6848 51.3393 24.7734 51.1954 24.8342C51.0516 24.895 50.8972 24.927 50.741 24.9283H49.0196C49.0196 24.9283 50.4412 21.2602 48.6425 21.2602C46.3554 21.2602 45.664 22.6647 45.664 25.435V28.577C45.6408 29.3772 45.7874 30.1733 46.0943 30.913V30.9516C46.1799 31.1209 46.2802 31.2824 46.3941 31.4342L46.4279 31.4728H41.9312L42.0085 31.3763C42.2164 31.0964 42.7193 30.218 42.7193 28.5529V23.5576C42.7298 22.8185 42.6036 22.0839 42.347 21.3905C42.2513 21.1378 42.1246 20.8979 41.9698 20.6762C43.5838 21.3607 45.4031 21.3815 47.0323 20.7341C47.5439 20.5288 48.0912 20.4271 48.6425 20.4349L48.6038 20.4204Z" fill="white"/>
<path d="M61.0547 31.4388C61.5771 30.5931 61.8254 29.6071 61.7655 28.6154V25.9561C61.7655 23.1712 61.4657 21.2793 59.667 21.2793C57.3799 21.2793 56.6691 23.1712 56.6691 25.9561V28.6154C56.6465 29.4156 56.7931 30.2115 57.0995 30.9514V30.99C57.1863 31.1586 57.2866 31.32 57.3993 31.4726L57.4379 31.5064H52.9412L53.0137 31.4147C53.2216 31.1348 53.7245 30.2564 53.7245 28.5913V19.5804C53.7245 17.5388 52.9412 16.6846 52.9412 16.6846H54.2709C54.9014 16.6858 55.5057 16.9364 55.9516 17.3815C56.3975 17.8265 56.6485 18.4298 56.6498 19.0592V22.1287C57.3074 21.1924 58.0714 20.4636 59.6283 20.4636C63.4336 20.4636 64.6521 22.9878 64.6521 26.096V28.6009C64.6295 29.4011 64.7761 30.1971 65.0825 30.9369V30.9755C65.1693 31.1441 65.2696 31.3055 65.3822 31.4581L65.4209 31.4967H60.9193L60.9967 31.4002L61.0547 31.4388Z" fill="white"/>
<path d="M77.422 20.6469C76.4648 21.603 75.6899 22.7249 75.1349 23.9578L70.7832 33.6443C70.5842 34.2061 70.2165 34.6929 69.7302 35.0384C69.2439 35.3839 68.6626 35.5712 68.0658 35.5749C67.3746 35.5619 66.7075 35.319 66.1703 34.8847C65.7417 34.4574 65.4941 33.882 65.4789 33.2775C65.4763 33.1162 65.5059 32.9559 65.566 32.8061C65.6261 32.6563 65.7155 32.52 65.8289 32.405C65.9423 32.29 66.0775 32.1987 66.2266 32.1363C66.3757 32.074 66.5357 32.0419 66.6974 32.042H68.3849C67.5967 32.8094 67.5049 34.7351 68.1963 34.7351C69.3374 34.7351 70.0869 33.0169 70.0869 33.0169C70.464 32.1916 70.1836 30.9753 69.8064 30.1548L67.1325 24.1315C66.5466 22.8436 65.7491 21.6626 64.7729 20.6372H69.5502C69.5117 20.8588 69.4923 21.0832 69.4922 21.3081C69.4875 21.9742 69.6295 22.6332 69.908 23.2386L72.2096 28.4029L74.6272 22.9973C74.9629 22.2653 75.0609 21.4469 74.9076 20.6565L77.422 20.6469Z" fill="white"/>
<path d="M92.7934 31.4775C93.3184 30.631 93.5684 29.6431 93.509 28.6493V25.5266C93.509 22.7611 93.0254 21.3566 91.8408 21.3566C89.9067 21.3566 89.1766 22.6453 89.1234 25.266V28.6445C89.1004 29.4462 89.247 30.2439 89.5537 30.9852V31.0239C89.6386 31.1936 89.739 31.3551 89.8535 31.5065L89.8874 31.5451H85.4341L85.5115 31.4534C86.0339 30.6077 86.2821 29.6217 86.2223 28.63V25.4735C86.2223 22.7032 85.7145 21.2987 84.5541 21.2987C82.5668 21.2987 81.8173 22.7032 81.8173 25.4735V28.6155C81.7976 29.4155 81.9441 30.2108 82.2477 30.9515V30.9901C82.3365 31.1576 82.4366 31.3188 82.5475 31.4727L82.5861 31.5065H78.0894L78.1619 31.4148C78.3698 31.1349 78.8775 30.2565 78.8775 28.5914V23.5961C78.8868 22.8567 78.7589 22.122 78.5004 21.429C78.4044 21.1773 78.2794 20.9376 78.128 20.7147C78.8805 21.0534 79.6949 21.2334 80.5203 21.2433C81.3456 21.2533 82.1642 21.0931 82.9246 20.7726C83.5271 20.5687 84.1597 20.4676 84.7958 20.4734C85.4888 20.4464 86.1744 20.6233 86.7676 20.9819C87.3607 21.3406 87.8352 21.8653 88.1322 22.4908C88.5231 21.8755 89.0628 21.3683 89.7016 21.0157C90.3403 20.6632 91.0577 20.4767 91.7876 20.4734C95.0659 20.4734 96.4536 22.9976 96.4536 26.1058V28.6107C96.431 29.4109 96.5777 30.2068 96.884 30.9466V30.9852C96.9708 31.1539 97.0711 31.3153 97.1838 31.4679L97.2225 31.5065H92.7257L92.7982 31.41L92.7934 31.4775Z" fill="white"/>
<path d="M105.379 30.6907C108.227 30.6907 110.176 28.0169 110.176 28.0169C109.407 30.015 107.14 31.6994 104.374 31.6994C100.66 31.6994 98.3394 29.1366 98.3394 26.0332C98.3394 22.9299 100.66 20.4395 104.374 20.4395C107.314 20.4395 109.62 21.9935 110.273 24.5371C110.34 24.7852 110.349 25.0456 110.298 25.2977C110.248 25.5498 110.139 25.7868 109.981 25.9899C109.823 26.193 109.62 26.3566 109.388 26.468C109.156 26.5794 108.901 26.6354 108.643 26.6317H101.424C101.855 28.6491 103.092 30.6907 105.399 30.6907H105.379ZM103.373 21.3758C101.439 21.897 101.124 23.9772 101.255 25.7919H106.801C106.896 25.7856 106.989 25.7597 107.073 25.716C107.158 25.6722 107.232 25.6115 107.292 25.5376C107.352 25.4638 107.396 25.3784 107.421 25.2867C107.447 25.1951 107.453 25.0993 107.439 25.0052C107.101 22.872 105.587 20.7773 103.392 21.3758H103.373Z" fill="white"/>
<path d="M116.863 24.8893C119.527 25.3044 121.926 25.9366 121.926 28.3691C121.926 30.8016 119.261 31.7187 116.675 31.7187C114.973 31.7187 112.806 31.1202 112.008 29.8315C111.923 29.6842 111.879 29.5169 111.879 29.3467C111.879 29.1765 111.925 29.0095 112.011 28.8625C112.097 28.7155 112.22 28.5938 112.368 28.5097C112.516 28.4256 112.684 28.3821 112.855 28.3836H114.445C114.445 30.2707 115.683 30.8885 116.675 30.8885C117.666 30.8885 118.981 30.2707 118.981 28.3836C118.981 27.5776 117.874 27.2977 116.491 27.095C113.807 26.6799 111.656 25.8787 111.656 23.6876C111.656 21.4095 114.557 20.507 116.602 20.4346C118.12 20.4346 120.538 21.0717 121.287 22.7368C121.335 22.8804 121.348 23.0331 121.326 23.1828C121.304 23.3325 121.247 23.4748 121.159 23.5984C121.072 23.7219 120.956 23.8232 120.822 23.894C120.688 23.9648 120.54 24.0032 120.388 24.0061H118.681C118.681 21.8728 117.371 21.2358 116.636 21.2358C115.794 21.2358 114.557 21.8728 114.557 23.6489C114.557 24.4356 115.814 24.7156 116.824 24.8652L116.863 24.8893Z" fill="white"/>
<path d="M13.8334 20.323L8.5653 25.5246L9.57651 26.515L14.8772 21.2812C15.3707 21.5987 15.9264 21.81 16.5082 21.9012V31.8857H17.9271V21.9012C18.5314 21.7989 19.1068 21.5711 19.6152 21.2329L24.8262 26.3781L25.8374 25.3877L20.6346 20.2505C21.027 19.7244 21.2895 19.115 21.4011 18.471H31.2604V17.07H21.3767C21.2843 16.4956 21.0703 15.9468 20.7487 15.4596L25.6417 10.6283L24.6386 9.63795L19.7457 14.4692C19.1981 14.0508 18.5534 13.774 17.8701 13.664V4.11426H16.4837V13.6398C15.8315 13.7501 15.2143 14.0093 14.6815 14.3967L9.71515 9.49301L8.70394 10.4754L13.6866 15.3951C13.3406 15.8954 13.1096 16.4642 13.0097 17.0619H3.12598V18.463H13.0097C13.1223 19.1413 13.4055 19.7808 13.8334 20.323ZM17.1932 14.9764C17.7518 14.9812 18.2965 15.1491 18.7586 15.459C19.2207 15.7689 19.5796 16.2069 19.79 16.7179C20.0005 17.2288 20.053 17.7898 19.9411 18.3302C19.8292 18.8706 19.5578 19.3662 19.161 19.7546C18.7643 20.1429 18.2601 20.4066 17.7119 20.5125C17.1636 20.6184 16.5959 20.5616 16.0803 20.3495C15.5646 20.1373 15.1241 19.7792 14.8142 19.3202C14.5044 18.8613 14.339 18.3221 14.339 17.7705C14.339 17.4015 14.413 17.0362 14.5567 16.6956C14.7004 16.3551 14.9111 16.046 15.1764 15.7862C15.4418 15.5264 15.7566 15.3211 16.1028 15.1821C16.4489 15.0432 16.8195 14.9732 17.1932 14.9764Z" fill="#FADCD9" stroke="#FADCD9" stroke-miterlimit="10"/>
</svg>
